<svg width="1200" height="320" viewBox="0 0 1200 320" xmlns="http://www.w3.org/2000/svg" shape-rendering="crispEdges">
  <defs>
    <linearGradient id="bg" x1="0" y1="0" x2="1200" y2="320" gradientUnits="userSpaceOnUse"><stop stop-color="#05070D"/><stop offset="0.55" stop-color="#071323"/><stop offset="1" stop-color="#130B22"/></linearGradient>
    <pattern id="scan" width="4" height="4" patternUnits="userSpaceOnUse"><rect width="4" height="1" fill="#FFFFFF" opacity="0.035"/></pattern>
    <linearGradient id="edge" x1="24" y1="20" x2="1176" y2="300" gradientUnits="userSpaceOnUse"><stop stop-color="#22D3EE"/><stop offset="0.5" stop-color="#5B8CFF"/><stop offset="1" stop-color="#C86BFF"/></linearGradient>
  </defs>
  <rect width="1200" height="320" fill="url(#bg)"/><rect width="1200" height="320" fill="url(#scan)"/>
  <path d="M30 22H1170V30H1178V290H1170V298H30V290H22V30H30Z" fill="none" stroke="url(#edge)" stroke-width="2"/>
  <rect x="50" y="47" width="11" height="11" fill="#5CFF9D"/><text x="75" y="58" fill="#8DF7FF" font-family="Consolas, Menlo, monospace" font-size="15" letter-spacing="2">TOOLCHAIN // RESEARCH SYSTEM LOADOUT</text>
  <text x="985" y="58" fill="#5CFF9D" font-family="Consolas, Menlo, monospace" font-size="13">8 MODULES</text>

  <g font-family="Consolas, Menlo, monospace">
    <g>
      <rect x="54" y="90" width="252" height="64" fill="#071827" stroke="#22D3EE"/><text x="72" y="113" fill="#8DF7FF" font-size="11">MODULE_01</text><text x="72" y="139" fill="#E6FBFF" font-size="17" font-weight="700">PYTHON</text>
      <rect x="326" y="90" width="252" height="64" fill="#071523" stroke="#38BDF8"/><text x="344" y="113" fill="#BAE6FD" font-size="11">MODULE_02</text><text x="344" y="139" fill="#E0F2FE" font-size="17" font-weight="700">C++</text>
      <rect x="598" y="90" width="252" height="64" fill="#0A1430" stroke="#60A5FA"/><text x="616" y="113" fill="#BFDBFE" font-size="11">MODULE_03</text><text x="616" y="139" fill="#DBEAFE" font-size="17" font-weight="700">PYTORCH</text>
      <rect x="870" y="90" width="276" height="64" fill="#10112C" stroke="#818CF8"/><text x="888" y="113" fill="#C7D2FE" font-size="11">MODULE_04</text><text x="888" y="139" fill="#E0E7FF" font-size="17" font-weight="700">GIT</text>
    </g>
    <g>
      <rect x="54" y="176" width="252" height="64" fill="#10112C" stroke="#8B5CF6"/><text x="72" y="199" fill="#DDD6FE" font-size="11">MODULE_05</text><text x="72" y="225" fill="#EDE9FE" font-size="17" font-weight="700">GITHUB</text>
      <rect x="326" y="176" width="252" height="64" fill="#13112D" stroke="#A78BFA"/><text x="344" y="199" fill="#E9D5FF" font-size="11">MODULE_06</text><text x="344" y="225" fill="#F3E8FF" font-size="17" font-weight="700">LLM APIs</text>
      <rect x="598" y="176" width="252" height="64" fill="#15102D" stroke="#C084FC"/><text x="616" y="199" fill="#F3E8FF" font-size="11">MODULE_07</text><text x="616" y="225" fill="#FAF5FF" font-size="17" font-weight="700">MCP</text>
      <rect x="870" y="176" width="276" height="64" fill="#16102C" stroke="#D8B4FE"/><text x="888" y="199" fill="#F5D0FE" font-size="11">MODULE_08</text><text x="888" y="225" fill="#FAE8FF" font-size="15" font-weight="700">SPEECH / AUDIO EVAL</text>
    </g>
  </g>

  <g fill="#5CFF9D">
    <rect x="286" y="106" width="7" height="7"/><rect x="558" y="106" width="7" height="7"/><rect x="830" y="106" width="7" height="7"/><rect x="1126" y="106" width="7" height="7"/>
    <rect x="286" y="192" width="7" height="7"/><rect x="558" y="192" width="7" height="7"/><rect x="830" y="192" width="7" height="7"/><rect x="1126" y="192" width="7" height="7"/>
  </g>
  <rect x="54" y="264" width="1092" height="1" fill="#22D3EE" opacity="0.35"/>
  <text x="54" y="284" fill="#94A3B8" font-family="Consolas, Menlo, monospace" font-size="12">PRIMARY MODE // RESEARCH-GRADE ENGINEERING · TESTING · REPRODUCIBILITY · SYSTEMS THINKING</text>
</svg>