<svg width="1200" height="360" viewBox="0 0 1200 360" xmlns="http://www.w3.org/2000/svg" shape-rendering="crispEdges">
  <defs>
    <linearGradient id="bg" x1="0" y1="0" x2="1200" y2="360" gradientUnits="userSpaceOnUse"><stop stop-color="#05070D"/><stop offset="0.55" stop-color="#071323"/><stop offset="1" stop-color="#130B22"/></linearGradient>
    <pattern id="scan" width="4" height="4" patternUnits="userSpaceOnUse"><rect width="4" height="1" fill="#FFFFFF" opacity="0.035"/></pattern>
    <linearGradient id="edge" x1="24" y1="20" x2="1176" y2="340" gradientUnits="userSpaceOnUse"><stop stop-color="#22D3EE"/><stop offset="0.5" stop-color="#5B8CFF"/><stop offset="1" stop-color="#C86BFF"/></linearGradient>
  </defs>
  <rect width="1200" height="360" fill="url(#bg)"/><rect width="1200" height="360" fill="url(#scan)"/>
  <path d="M30 22H1170V30H1178V330H1170V338H30V330H22V30H30Z" fill="none" stroke="url(#edge)" stroke-width="2"/>
  <rect x="50" y="47" width="11" height="11" fill="#5CFF9D"/><text x="75" y="58" fill="#8DF7FF" font-family="Consolas, Menlo, monospace" font-size="15" letter-spacing="2">CURRENT_PROCESS // RESEARCH QUEUE</text>
  <text x="986" y="58" fill="#5CFF9D" font-family="Consolas, Menlo, monospace" font-size="13">NODE: ONLINE</text>

  <g font-family="Consolas, Menlo, monospace">
    <rect x="54" y="88" width="1092" height="54" fill="#071827" stroke="#22D3EE"/><rect x="70" y="104" width="12" height="12" fill="#5CFF9D"/><text x="102" y="113" fill="#8DF7FF" font-size="12">ACTIVE</text><text x="220" y="113" fill="#E6FBFF" font-size="16" font-weight="700">LONG-FORM TTS EVALUATION</text><text x="220" y="132" fill="#7DD3FC" font-size="11">FLAGSHIP RESEARCH // EVALUATION SYSTEMS</text>

    <rect x="54" y="154" width="1092" height="54" fill="#081526" stroke="#38BDF8"/><rect x="70" y="170" width="12" height="12" fill="#38BDF8"/><text x="102" y="179" fill="#BAE6FD" font-size="12">EXPLORE</text><text x="220" y="179" fill="#E0F2FE" font-size="16" font-weight="700">AI SECURITY + SYNTHETIC SPEECH FORENSICS</text><text x="220" y="198" fill="#93C5FD" font-size="11">ROBUSTNESS // OOD // GENERATIVE AUDIO SECURITY</text>

    <rect x="54" y="220" width="1092" height="54" fill="#0D1330" stroke="#818CF8"/><rect x="70" y="236" width="12" height="12" fill="#818CF8"/><text x="102" y="245" fill="#C7D2FE" font-size="12">STUDY</text><text x="220" y="245" fill="#E0E7FF" font-size="16" font-weight="700">LLM EVALUATION + RELIABLE AI SYSTEMS</text><text x="220" y="264" fill="#A5B4FC" font-size="11">EVIDENCE // MEMORY // PROTOCOLS // SYSTEM BEHAVIOR</text>

    <rect x="54" y="286" width="1092" height="32" fill="#15102D" stroke="#C084FC"/><rect x="70" y="296" width="12" height="12" fill="#C084FC"/><text x="102" y="306" fill="#F3E8FF" font-size="12">BUILD</text><text x="220" y="306" fill="#FAF5FF" font-size="14" font-weight="700">TESTING · CI · REPRODUCIBILITY · RESEARCH-GRADE ENGINEERING</text>
  </g>

  <text x="54" y="342" fill="#7E8CA0" font-family="Consolas, Menlo, monospace" font-size="11">RESEARCH // BUILD // EVALUATE // AUDIT // UNDERSTAND  ·  SIGNAL ACQUIRED  ·  EVIDENCE MATTERS</text>
</svg>